<?xml version="1.0" encoding="UTF-8"?>
<!-- Generator: Adobe Illustrator 22.1.0, SVG Export Plug-In . SVG Version: 6.00 Build 0)  -->
<svg version="1.1" id="Слой_1" xmlns="http://www.w3.org/2000/svg" xmlns:xlink="http://www.w3.org/1999/xlink" x="0px" y="0px" viewBox="0 0 1128 719.3" style="enable-background:new 0 0 1128 719.3;" xml:space="preserve">
<style type="text/css">
	.st0{filter:url(#filter-1);}
	.st1{fill:#FFFFFF;}
	.st2{fill:url(#Rectangle-3-Copy-3_2_);}
	.st3{fill:none;stroke:#FFFFFF;stroke-width:50;}
</style>
<filter filterUnits="objectBoundingBox" height="110.2%" id="filter-1" width="110.1%" x="-5.1%" y="-4.0%">
	<feOffset dx="0" dy="10" in="SourceAlpha" result="shadowOffsetOuter1"/>
	<feMorphology in="SourceAlpha" operator="erode" radius="50" result="shadowInner"/>
	<feOffset dx="0" dy="10" in="shadowInner" result="shadowInner"/>
	<feComposite in="shadowOffsetOuter1" in2="shadowInner" operator="out" result="shadowOffsetOuter1"/>
	<feGaussianBlur in="shadowOffsetOuter1" result="shadowBlurOuter1" stdDeviation="14.5"/>
	
		<feColorMatrix in="shadowBlurOuter1" result="shadowMatrixOuter1" type="matrix" values="0 0 0 0 0.48627451   0 0 0 0 0.623529412   0 0 0 0 0.678431373  0 0 0 0.10045856 0">
		</feColorMatrix>
	<feMerge>
		<feMergeNode in="shadowMatrixOuter1"/>
		<feMergeNode in="SourceGraphic"/>
	</feMerge>
</filter>
<title>Group 8</title>
<desc>Created with Sketch.</desc>
<g id="Page-1">
	<g id="Protofire_desktop">
		<g id="INITIAL-SCREEN" transform="translate(-42.000000, -236.000000)">
			<g id="Group-8" class="st0">
				
					<g id="Group-5-Copy_1_" transform="translate(480.589971, 476.589971) rotate(-315.000000) translate(-480.589971, -476.589971) translate(143.589971, 139.589971)">
					<path id="Rectangle-3-Copy-2_1_" class="st1" d="M243.5,274.6c-7.7,0-14,6.3-14,14V366c0,7.7,6.3,14,14,14h77.4       c7.7,0,14-6.3,14-14v-77.4c0-7.7-6.3-14-14-14H243.5z M243.5,224.6h77.4c35.3,0,64,28.7,64,64V366c0,35.3-28.7,64-64,64h-77.4       c-35.3,0-64-28.7-64-64v-77.4C179.5,253.2,208.2,224.6,243.5,224.6z"/>
					
						<linearGradient id="Rectangle-3-Copy-3_2_" gradientUnits="userSpaceOnUse" x1="554.6943" y1="1051.2582" x2="555.7032" y2="1052.2655" gradientTransform="matrix(311.8611 -311.8611 -311.8611 -311.8611 155279.9062 501255.375)">
						<stop offset="0" style="stop-color:#FFFFFF"/>
						<stop offset="1" style="stop-color:#F1F4F9"/>
					</linearGradient>
					<path id="Rectangle-3-Copy-3_1_" class="st2" d="M512.5,58c-17.1,0-31,13.9-31,31v241c0,17.1,13.9,31,31,31h241       c17.1,0,31-13.9,31-31V89c0-17.1-13.9-31-31-31H512.5z M512.5-11h241c55.2,0,100,44.8,100,100v241c0,55.2-44.8,100-100,100       h-241c-55.2,0-100-44.8-100-100V89C412.5,33.7,457.2-11,512.5-11z"/>
					<path id="Rectangle-3-Copy-5_1_" class="st3" d="M476.7,482.1h77.4c21.5,0,39,17.5,39,39v77.4c0,21.5-17.5,39-39,39h-77.4       c-21.5,0-39-17.5-39-39v-77.4C437.7,499.5,455.2,482.1,476.7,482.1z M476.7,482.1c-21.5,0-39,17.5-39,39v77.4       c0,21.5,17.5,39,39,39h77.4c21.5,0,39-17.5,39-39v-77.4c0-21.5-17.5-39-39-39H476.7z"/>
				</g>
				<path id="Rectangle-3-Copy-4_1_" class="st3" d="M198,569.5l54.8-54.8c15.2-15.2,39.9-15.2,55.2,0l54.8,54.8      c15.2,15.2,15.2,39.9,0,55.2l-54.8,54.8c-15.2,15.2-39.9,15.2-55.2,0L198,624.7C182.7,609.5,182.7,584.8,198,569.5z M198,569.5      c-15.2,15.2-15.2,39.9,0,55.2l54.8,54.8c15.2,15.2,39.9,15.2,55.2,0l54.8-54.8c15.2-15.2,15.2-39.9,0-55.2l-54.8-54.8      c-15.2-15.2-39.9-15.2-55.2,0L198,569.5z"/>
			</g>
		</g>
	</g>
</g>
</svg>